<?xml version="1.0" encoding="UTF-8"?>
<svg version="1.1" xmlns="http://www.w3.org/2000/svg" width="100" height="100">
<path d="M0 0 C9.12846429 6.79933156 16.14345536 16.61098108 19.02734375 27.75 C21.48388498 45.07738902 19.05567237 59.61718674 8.46484375 73.8359375 C1.59364889 82.48416552 -9.55353073 89.27904882 -20.53515625 90.8359375 C-36.71968989 92.13474091 -50.11130907 90.1913025 -63.03515625 79.83203125 C-71.89989181 72.24687805 -79.31552076 62.79653998 -80.93554688 50.89428711 C-81.10637068 47.75941899 -81.14144153 44.6625789 -81.09765625 41.5234375 C-81.08742432 40.42128906 -81.07719238 39.31914063 -81.06665039 38.18359375 C-80.73459665 25.45079092 -77.15179443 16.35170314 -68.53515625 6.8359375 C-68.0246875 6.22234375 -67.51421875 5.60875 -66.98828125 4.9765625 C-49.92736401 -14.11139442 -19.89432762 -13.5292845 0 0 Z " fill="#B33753" transform="translate(80.53515625,9.1640625)"/>
<path d="M0 0 C3.11725146 1.52279525 5.52268698 3.23205759 8.1640625 5.49609375 C11.25580344 7.77421865 12.74975471 7.62871242 16.5390625 7.24609375 C19.51877697 5.79906281 19.51877697 5.79906281 22.2890625 3.80859375 C23.23265625 3.17050781 24.17625 2.53242187 25.1484375 1.875 C25.93734375 1.33746094 26.72625 0.79992187 27.5390625 0.24609375 C31.53057076 -1.74966038 36.20213394 -1.27723267 40.5390625 -0.75390625 C44.08507791 0.58935257 47.30145775 2.27965269 50.5390625 4.24609375 C50.5390625 9.83352587 45.61665433 14.0266176 41.9375 17.95703125 C30.77090122 28.35351977 17.15332461 30.84551382 2.51171875 30.5625 C-11.66694241 29.92348435 -21.46076997 22.57495374 -31.4609375 13.24609375 C-23.25116537 2.73509762 -13.92586706 -4.26617832 0 0 Z " fill="#FDFAFA" transform="translate(42.4609375,69.75390625)"/>
<path d="M0 0 C6.76866314 4.07855343 12.67295166 9.17154975 17.4375 15.46875 C13.9725 19.42875 13.9725 19.42875 10.4375 23.46875 C6.5766789 21.31999858 3.48353388 18.84736544 0.25 15.84375 C-4.1159051 11.61831759 -4.1159051 11.61831759 -9.80078125 10.1328125 C-14.41552886 10.54492911 -16.1994093 11.93162257 -19.75 14.84375 C-25.70571993 19.66031426 -28.66544146 21.75617884 -36.4375 21.78125 C-37.63117187 21.79800781 -38.82484375 21.81476562 -40.0546875 21.83203125 C-45.30652508 21.2881327 -49.00028907 19.10270571 -53 15.78125 C-56.5698839 13.17279179 -59.11370167 12.80966877 -63.5625 13.46875 C-65.2125 14.45875 -66.8625 15.44875 -68.5625 16.46875 C-68.5625 11.84875 -68.5625 7.22875 -68.5625 2.46875 C-63.83844156 0.10672078 -60.74286889 -0.33009193 -55.5625 0.46875 C-50.80191445 2.24160901 -46.69962805 4.51252869 -42.8125 7.78125 C-40.64357639 9.64687796 -40.64357639 9.64687796 -37.8125 10.09375 C-32.90720829 9.15042467 -29.56394338 6.34816703 -25.5625 3.46875 C-24.11306142 2.51755593 -22.65522641 1.57897506 -21.1875 0.65625 C-20.56101563 0.25792969 -19.93453125 -0.14039063 -19.2890625 -0.55078125 C-12.90130091 -4.17822053 -6.28394613 -3.05469604 0 0 Z " fill="#FDF9FA" transform="translate(68.5625,39.53125)"/>
<path d="M0 0 C1.96366488 1.20982349 3.71123835 2.47291412 5.4609375 3.97265625 C8.00185379 6.13990838 9.00360097 6.90306156 12.3359375 7.41015625 C16.26844029 6.85960586 18.29663867 5.32904899 21.4609375 2.97265625 C23.12120106 1.96206104 24.78563852 0.95812624 26.4609375 -0.02734375 C27.61287373 1.07045449 28.75728687 2.17615071 29.8984375 3.28515625 C30.53652344 3.90003906 31.17460938 4.51492187 31.83203125 5.1484375 C33.4609375 6.97265625 33.4609375 6.97265625 34.4609375 9.97265625 C31.99637846 11.47769329 29.52540111 12.9686156 27.0390625 14.4375 C25.19702262 15.53435102 23.38166857 16.67652729 21.5859375 17.84765625 C15.99603381 19.86002158 9.63221591 20.33177557 4.08203125 17.953125 C2.11483133 16.71755921 0.2857581 15.40858065 -1.5390625 13.97265625 C-5.40775973 11.30141292 -7.79791672 10.19859163 -12.5390625 10.97265625 C-14.73271604 12.47330285 -16.56352883 14.17671655 -18.5390625 15.97265625 C-19.1990625 15.97265625 -19.8590625 15.97265625 -20.5390625 15.97265625 C-20.8690625 16.96265625 -21.1990625 17.95265625 -21.5390625 18.97265625 C-23.16239217 20.35842548 -24.82630715 21.69906893 -26.5390625 22.97265625 C-30.8133183 21.38959855 -32.80438044 18.46697221 -35.5390625 14.97265625 C-15.35521972 -6.21295813 -15.35521972 -6.21295813 0 0 Z " fill="#FDFBFC" transform="translate(56.5390625,11.02734375)"/>
<path d="M0 0 C1.95703125 1.20703125 1.95703125 1.20703125 3.8125 2.8125 C9.27622048 7.12220102 13.93464363 9.35650881 21 9 C26.2126081 8.28517393 29.83389882 6.08849533 34 3 C37.6812441 0.54583727 40.72261963 0.40615846 45 1 C47.5 2.5 47.5 2.5 49 4 C46.49002542 10.22037178 40.09009807 13.5297824 34.2578125 16.3046875 C21.5594078 21.46694698 6.39585082 22.33336986 -6.5 17.22265625 C-10.21897678 15.40384417 -13.59525693 13.35712982 -17 11 C-16.06409496 9.8944811 -15.12620142 8.79064547 -14.1875 7.6875 C-13.66542969 7.07261719 -13.14335937 6.45773438 -12.60546875 5.82421875 C-8.76082274 1.45572803 -6.10992243 -0.57075845 0 0 Z " fill="#DA3D45" transform="translate(37,80)"/>
</svg>
